<svg width="119" height="20" viewBox="0 0 119 20" fill="none" xmlns="http://www.w3.org/2000/svg">
<path d="M5.6 13.5L0.8 8.7L5.6 3.9L7.1 5.39L3.68 8.7L7.1 12.01L5.6 13.5ZM15.7939 0.599999H18.2139L14.3739 15H11.9539L15.7939 0.599999ZM113.882 13.5L112.392 12.01L115.802 8.7L112.392 5.39L113.882 3.9L118.692 8.7L113.882 13.5Z" fill="url(#paint0_linear_204_2001)"/>
<path d="M25.1363 15.3C24.1429 15.3 23.2763 15.05 22.5363 14.55C21.7963 14.05 21.2229 13.37 20.8163 12.51C20.4096 11.65 20.2063 10.68 20.2063 9.6C20.2063 8.50667 20.4096 7.53333 20.8163 6.68C21.2296 5.82 21.8129 5.14333 22.5663 4.65C23.3196 4.15 24.2063 3.9 25.2263 3.9C26.2529 3.9 27.1129 4.15 27.8063 4.65C28.5063 5.14333 29.0363 5.82 29.3963 6.68C29.7563 7.54 29.9363 8.51333 29.9363 9.6C29.9363 10.6733 29.7563 11.6433 29.3963 12.51C29.0363 13.37 28.4996 14.05 27.7863 14.55C27.0729 15.05 26.1896 15.3 25.1363 15.3ZM25.5063 13.14C26.1529 13.14 26.6729 12.9933 27.0663 12.7C27.4663 12.4 27.7563 11.9833 27.9363 11.45C28.1229 10.9167 28.2163 10.3 28.2163 9.6C28.2163 8.89333 28.1229 8.27667 27.9363 7.75C27.7563 7.21667 27.4729 6.80333 27.0863 6.51C26.6996 6.21 26.1996 6.06 25.5863 6.06C24.9396 6.06 24.4063 6.22 23.9863 6.54C23.5663 6.85333 23.2563 7.28 23.0563 7.82C22.8563 8.35333 22.7563 8.94667 22.7563 9.6C22.7563 10.26 22.8529 10.86 23.0463 11.4C23.2463 11.9333 23.5496 12.3567 23.9563 12.67C24.3629 12.9833 24.8796 13.14 25.5063 13.14ZM28.2163 15V7.42H27.9163V0.599999H30.3463V15H28.2163ZM38.06 15.3C36.9667 15.3 36.0067 15.0633 35.18 14.59C34.3533 14.1167 33.7067 13.46 33.24 12.62C32.78 11.78 32.55 10.8133 32.55 9.72C32.55 8.54 32.7767 7.51667 33.23 6.65C33.6833 5.77667 34.3133 5.1 35.12 4.62C35.9267 4.14 36.86 3.9 37.92 3.9C39.04 3.9 39.99 4.16333 40.77 4.69C41.5567 5.21 42.14 5.94667 42.52 6.9C42.9 7.85333 43.0433 8.97667 42.95 10.27H40.56V9.39C40.5533 8.21667 40.3467 7.36 39.94 6.82C39.5333 6.28 38.8933 6.01 38.02 6.01C37.0333 6.01 36.3 6.31667 35.82 6.93C35.34 7.53667 35.1 8.42667 35.1 9.6C35.1 10.6933 35.34 11.54 35.82 12.14C36.3 12.74 37 13.04 37.92 13.04C38.5133 13.04 39.0233 12.91 39.45 12.65C39.8833 12.3833 40.2167 12 40.45 11.5L42.83 12.22C42.4167 13.1933 41.7767 13.95 40.91 14.49C40.05 15.03 39.1 15.3 38.06 15.3ZM34.34 10.27V8.45H41.77V10.27H34.34ZM47.7106 15L43.7906 4.2H46.2006L48.9206 12.03L51.6306 4.2H54.0506L50.1306 15H47.7106ZM60.3647 15.3C59.2714 15.3 58.3114 15.0633 57.4847 14.59C56.658 14.1167 56.0114 13.46 55.5447 12.62C55.0847 11.78 54.8547 10.8133 54.8547 9.72C54.8547 8.54 55.0814 7.51667 55.5347 6.65C55.988 5.77667 56.618 5.1 57.4247 4.62C58.2314 4.14 59.1647 3.9 60.2247 3.9C61.3447 3.9 62.2947 4.16333 63.0747 4.69C63.8614 5.21 64.4447 5.94667 64.8247 6.9C65.2047 7.85333 65.348 8.97667 65.2547 10.27H62.8647V9.39C62.858 8.21667 62.6514 7.36 62.2447 6.82C61.838 6.28 61.198 6.01 60.3247 6.01C59.338 6.01 58.6047 6.31667 58.1247 6.93C57.6447 7.53667 57.4047 8.42667 57.4047 9.6C57.4047 10.6933 57.6447 11.54 58.1247 12.14C58.6047 12.74 59.3047 13.04 60.2247 13.04C60.818 13.04 61.328 12.91 61.7547 12.65C62.188 12.3833 62.5214 12 62.7547 11.5L65.1347 12.22C64.7214 13.1933 64.0814 13.95 63.2147 14.49C62.3547 15.03 61.4047 15.3 60.3647 15.3ZM56.6447 10.27V8.45H64.0747V10.27H56.6447ZM67.6859 15V0.3H70.0959V15H67.6859ZM77.8614 15.3C76.7814 15.3 75.8381 15.0567 75.0314 14.57C74.2247 14.0833 73.5981 13.4133 73.1514 12.56C72.7114 11.7 72.4914 10.7133 72.4914 9.6C72.4914 8.46667 72.7181 7.47333 73.1714 6.62C73.6247 5.76667 74.2547 5.1 75.0614 4.62C75.8681 4.14 76.8014 3.9 77.8614 3.9C78.9481 3.9 79.8947 4.14333 80.7014 4.63C81.5081 5.11667 82.1347 5.79 82.5814 6.65C83.0281 7.50333 83.2514 8.48667 83.2514 9.6C83.2514 10.72 83.0247 11.71 82.5714 12.57C82.1247 13.4233 81.4981 14.0933 80.6914 14.58C79.8847 15.06 78.9414 15.3 77.8614 15.3ZM77.8614 13.04C78.8214 13.04 79.5347 12.72 80.0014 12.08C80.4681 11.44 80.7014 10.6133 80.7014 9.6C80.7014 8.55333 80.4647 7.72 79.9914 7.1C79.5181 6.47333 78.8081 6.16 77.8614 6.16C77.2147 6.16 76.6814 6.30667 76.2614 6.6C75.8481 6.88667 75.5414 7.29 75.3414 7.81C75.1414 8.32333 75.0414 8.92 75.0414 9.6C75.0414 10.6467 75.2781 11.4833 75.7514 12.11C76.2314 12.73 76.9347 13.04 77.8614 13.04ZM90.2247 15.3C89.1447 15.3 88.2014 15.0567 87.3947 14.57C86.588 14.0833 85.9614 13.4133 85.5147 12.56C85.0747 11.7 84.8547 10.7133 84.8547 9.6C84.8547 8.46667 85.0814 7.47333 85.5347 6.62C85.988 5.76667 86.618 5.1 87.4247 4.62C88.2314 4.14 89.1647 3.9 90.2247 3.9C91.3114 3.9 92.258 4.14333 93.0647 4.63C93.8714 5.11667 94.498 5.79 94.9447 6.65C95.3914 7.50333 95.6147 8.48667 95.6147 9.6C95.6147 10.72 95.388 11.71 94.9347 12.57C94.488 13.4233 93.8614 14.0933 93.0547 14.58C92.248 15.06 91.3047 15.3 90.2247 15.3ZM90.2247 13.04C91.1847 13.04 91.898 12.72 92.3647 12.08C92.8314 11.44 93.0647 10.6133 93.0647 9.6C93.0647 8.55333 92.828 7.72 92.3547 7.1C91.8814 6.47333 91.1714 6.16 90.2247 6.16C89.578 6.16 89.0447 6.30667 88.6247 6.6C88.2114 6.88667 87.9047 7.29 87.7047 7.81C87.5047 8.32333 87.4047 8.92 87.4047 9.6C87.4047 10.6467 87.6414 11.4833 88.1147 12.11C88.5947 12.73 89.298 13.04 90.2247 13.04ZM103.008 15.3C101.955 15.3 101.071 15.05 100.358 14.55C99.6446 14.05 99.108 13.37 98.748 12.51C98.388 11.6433 98.208 10.6733 98.208 9.6C98.208 8.51333 98.388 7.54 98.748 6.68C99.108 5.82 99.6346 5.14333 100.328 4.65C101.028 4.15 101.891 3.9 102.918 3.9C103.938 3.9 104.821 4.15 105.568 4.65C106.321 5.14333 106.905 5.82 107.318 6.68C107.731 7.53333 107.938 8.50667 107.938 9.6C107.938 10.68 107.735 11.65 107.328 12.51C106.921 13.37 106.348 14.05 105.608 14.55C104.868 15.05 104.001 15.3 103.008 15.3ZM97.798 19.8V4.2H99.928V11.78H100.228V19.8H97.798ZM102.638 13.14C103.265 13.14 103.781 12.9833 104.188 12.67C104.595 12.3567 104.895 11.9333 105.088 11.4C105.288 10.86 105.388 10.26 105.388 9.6C105.388 8.94667 105.288 8.35333 105.088 7.82C104.888 7.28 104.578 6.85333 104.158 6.54C103.738 6.22 103.205 6.06 102.558 6.06C101.945 6.06 101.445 6.21 101.058 6.51C100.671 6.80333 100.385 7.21667 100.198 7.75C100.018 8.27667 99.928 8.89333 99.928 9.6C99.928 10.3 100.018 10.9167 100.198 11.45C100.385 11.9833 100.675 12.4 101.068 12.7C101.468 12.9933 101.991 13.14 102.638 13.14Z" fill="#F5F5F5"/>
<defs>
<linearGradient id="paint0_linear_204_2001" x1="-2" y1="7" x2="122" y2="7" gradientUnits="userSpaceOnUse">
<stop stop-color="#E2FF24"/>
<stop offset="1" stop-color="#24FE41"/>
</linearGradient>
</defs>
</svg>
