<svg width="140" height="40" viewBox="0 0 140 40" fill="none" xmlns="http://www.w3.org/2000/svg">
<path d="M30.9346 21.5912C29.0949 21.5912 27.3711 20.8123 25.805 19.5444L26.1863 17.7545L26.2029 17.6882C26.5425 15.7824 27.6199 12.5835 30.9346 12.5835C33.4205 12.5835 35.4425 14.6056 35.4425 17.0915C35.4341 19.5692 33.4123 21.5912 30.9346 21.5912ZM30.9346 8.01767C26.6999 8.01767 23.4186 10.7689 22.0845 15.2934C20.0459 12.2355 18.5045 8.56463 17.6014 5.47363H13.0437V17.3318C13.0437 19.6687 11.1377 21.5744 8.80081 21.5744C6.46394 21.5744 4.55818 19.6687 4.55818 17.3318V5.47363H5.19777e-05V17.3318C-0.0165295 22.1879 3.93626 26.1737 8.79219 26.1737C13.6483 26.1737 17.6011 22.1879 17.6011 17.3318V15.3431C18.4877 17.191 19.5732 19.0554 20.8909 20.7129L18.0981 33.8387H22.7637L24.7855 24.3174C26.5589 25.4527 28.5975 26.1655 30.9344 26.1655C35.9311 26.1655 40 22.0719 40 17.0749C40 12.0863 35.9311 8.01767 30.9344 8.01767H30.9346Z" fill="#666666"/>
<path d="M56.5516 0.908492C56.735 0.536869 57.265 0.53687 57.4484 0.908493L59.5287 5.1237C59.6015 5.27127 59.7423 5.37356 59.9052 5.39722L64.5569 6.07316C64.967 6.13276 65.1308 6.63674 64.834 6.92601L61.468 10.2071C61.3501 10.322 61.2964 10.4875 61.3242 10.6497L62.1188 15.2826C62.1889 15.6911 61.7601 16.0026 61.3933 15.8097L57.2327 13.6223C57.087 13.5457 56.913 13.5457 56.7673 13.6223L52.6067 15.8097C52.2399 16.0026 51.8111 15.6911 51.8812 15.2826L52.6758 10.6497C52.7036 10.4875 52.6499 10.322 52.532 10.2071L49.166 6.92601C48.8692 6.63674 49.033 6.13276 49.4431 6.07316L54.0948 5.39722C54.2577 5.37356 54.3985 5.27127 54.4713 5.1237L56.5516 0.908492Z" fill="#666666"/>
<path d="M74.5516 0.908492C74.735 0.536869 75.265 0.53687 75.4484 0.908493L77.5287 5.1237C77.6015 5.27127 77.7423 5.37356 77.9052 5.39722L82.5569 6.07316C82.967 6.13276 83.1308 6.63674 82.834 6.92601L79.468 10.2071C79.3501 10.322 79.2964 10.4875 79.3242 10.6497L80.1188 15.2826C80.1889 15.6911 79.7601 16.0026 79.3933 15.8097L75.2327 13.6223C75.087 13.5457 74.913 13.5457 74.7673 13.6223L70.6067 15.8097C70.2399 16.0026 69.8111 15.6911 69.8812 15.2826L70.6758 10.6497C70.7036 10.4875 70.6499 10.322 70.532 10.2071L67.166 6.92601C66.8692 6.63674 67.033 6.13276 67.4431 6.07316L72.0948 5.39722C72.2577 5.37356 72.3985 5.27127 72.4713 5.1237L74.5516 0.908492Z" fill="#666666"/>
<path d="M92.5516 0.908492C92.735 0.536869 93.265 0.53687 93.4484 0.908493L95.5287 5.1237C95.6015 5.27127 95.7423 5.37356 95.9052 5.39722L100.557 6.07316C100.967 6.13276 101.131 6.63674 100.834 6.92601L97.468 10.2071C97.3501 10.322 97.2964 10.4875 97.3242 10.6497L98.1188 15.2826C98.1889 15.6911 97.7601 16.0026 97.3933 15.8097L93.2327 13.6223C93.087 13.5457 92.913 13.5457 92.7673 13.6223L88.6067 15.8097C88.2399 16.0026 87.8111 15.6911 87.8812 15.2826L88.6758 10.6497C88.7036 10.4875 88.6499 10.322 88.532 10.2071L85.166 6.92601C84.8692 6.63674 85.033 6.13276 85.4431 6.07316L90.0948 5.39722C90.2577 5.37356 90.3985 5.27127 90.4713 5.1237L92.5516 0.908492Z" fill="#666666"/>
<path d="M110.552 0.908492C110.735 0.536869 111.265 0.53687 111.448 0.908493L113.529 5.1237C113.602 5.27127 113.742 5.37356 113.905 5.39722L118.557 6.07316C118.967 6.13276 119.131 6.63674 118.834 6.92601L115.468 10.2071C115.35 10.322 115.296 10.4875 115.324 10.6497L116.119 15.2826C116.189 15.6911 115.76 16.0026 115.393 15.8097L111.233 13.6223C111.087 13.5457 110.913 13.5457 110.767 13.6223L106.607 15.8097C106.24 16.0026 105.811 15.6911 105.881 15.2826L106.676 10.6497C106.704 10.4875 106.65 10.322 106.532 10.2071L103.166 6.92601C102.869 6.63674 103.033 6.13276 103.443 6.07316L108.095 5.39722C108.258 5.37356 108.398 5.27127 108.471 5.1237L110.552 0.908492Z" fill="#666666"/>
<path d="M128.552 0.908492C128.735 0.536869 129.265 0.53687 129.448 0.908493L131.529 5.1237C131.602 5.27127 131.742 5.37356 131.905 5.39722L136.557 6.07316C136.967 6.13276 137.131 6.63674 136.834 6.92601L133.468 10.2071C133.35 10.322 133.296 10.4875 133.324 10.6497L134.119 15.2826C134.189 15.6911 133.76 16.0026 133.393 15.8097L129.233 13.6223C129.087 13.5457 128.913 13.5457 128.767 13.6223L124.607 15.8097C124.24 16.0026 123.811 15.6911 123.881 15.2826L124.676 10.6497C124.704 10.4875 124.65 10.322 124.532 10.2071L121.166 6.92601C120.869 6.63674 121.033 6.13276 121.443 6.07316L126.095 5.39722C126.258 5.37356 126.398 5.27127 126.471 5.1237L128.552 0.908492Z" fill="#666666"/>
<path d="M54.11 32.592H49.35V31.682L54.096 25.214H55.552V31.472H57.064V32.592H55.552V35H54.11V32.592ZM54.278 31.472V26.922L50.96 31.472H54.278ZM58.0382 34.062L60.1522 32.032C60.3389 31.8453 60.6002 31.6027 60.9362 31.304C61.4682 30.8187 61.8742 30.4267 62.1542 30.128C62.4342 29.8293 62.6629 29.512 62.8402 29.176C63.0175 28.8307 63.1062 28.462 63.1062 28.07C63.1062 27.4913 62.9382 27.0527 62.6022 26.754C62.2662 26.446 61.7762 26.292 61.1322 26.292C60.6935 26.292 60.2409 26.3713 59.7742 26.53C59.3169 26.6887 58.8875 26.922 58.4862 27.23V25.858C59.2702 25.2887 60.2269 25.004 61.3562 25.004C62.3642 25.004 63.1482 25.2747 63.7082 25.816C64.2682 26.348 64.5482 27.076 64.5482 28C64.5482 28.448 64.4502 28.8773 64.2542 29.288C64.0675 29.6987 63.8015 30.1047 63.4562 30.506C63.1109 30.898 62.6442 31.3787 62.0562 31.948L60.1522 33.81H64.9122V35H58.0382V34.062ZM71.6346 25.214H75.5686C76.6139 25.214 77.4166 25.466 77.9766 25.97C78.5366 26.474 78.8166 27.2113 78.8166 28.182C78.8166 28.9007 78.6253 29.512 78.2426 30.016C77.8599 30.5107 77.3186 30.8467 76.6186 31.024L78.7746 35H77.2906L75.2046 31.136H73.0626V35H71.6346V25.214ZM75.3306 29.932C75.9559 29.932 76.4506 29.7873 76.8146 29.498C77.1879 29.1993 77.3746 28.7607 77.3746 28.182C77.3746 27.5473 77.1926 27.0947 76.8286 26.824C76.4739 26.5533 75.9746 26.418 75.3306 26.418H73.0626V29.932H75.3306ZM80.3573 25.214H86.8113V26.418H81.7853V29.512H85.5373V30.702H81.7853V33.81H86.8113V35H80.3573V25.214ZM87.9386 25.214H89.4506L92.5306 33.054L95.6106 25.214H97.1226L93.2166 35H91.8446L87.9386 25.214ZM98.6639 25.214H100.106V35H98.6639V25.214ZM101.931 25.214H108.385V26.418H103.359V29.512H107.111V30.702H103.359V33.81H108.385V35H101.931V25.214ZM109.376 25.214H110.86L113.044 32.648L115.2 25.214H116.32L118.462 32.648L120.646 25.214H122.13L119.274 35H117.916L115.746 27.608L113.59 35H112.232L109.376 25.214ZM125.757 35.21C125.197 35.21 124.642 35.1587 124.091 35.056C123.55 34.9627 123.106 34.832 122.761 34.664V33.376C123.657 33.796 124.623 34.006 125.659 34.006C127.115 34.006 127.843 33.516 127.843 32.536C127.843 32.2 127.764 31.9293 127.605 31.724C127.446 31.5187 127.218 31.3413 126.919 31.192C126.62 31.0333 126.135 30.8187 125.463 30.548C124.539 30.1747 123.872 29.764 123.461 29.316C123.05 28.868 122.845 28.3033 122.845 27.622C122.845 27.1087 122.985 26.656 123.265 26.264C123.545 25.8627 123.937 25.5547 124.441 25.34C124.945 25.116 125.524 25.004 126.177 25.004C126.709 25.004 127.19 25.046 127.619 25.13C128.048 25.214 128.468 25.3493 128.879 25.536V26.768C128.067 26.404 127.246 26.222 126.415 26.222C125.743 26.222 125.23 26.3433 124.875 26.586C124.52 26.8287 124.343 27.174 124.343 27.622C124.343 27.93 124.418 28.1913 124.567 28.406C124.726 28.6113 124.954 28.798 125.253 28.966C125.561 29.1247 126.014 29.3253 126.611 29.568C127.274 29.8387 127.796 30.0953 128.179 30.338C128.562 30.5807 128.851 30.8793 129.047 31.234C129.252 31.5793 129.355 32.0133 129.355 32.536C129.355 33.3853 129.052 34.0433 128.445 34.51C127.838 34.9767 126.942 35.21 125.757 35.21Z" fill="#666666"/>
</svg>
